<?xml version="1.0" encoding="utf-8"?>
<!-- Generator: Adobe Illustrator 24.0.0, SVG Export Plug-In . SVG Version: 6.00 Build 0)  -->
<svg version="1.1" id="Ebene_1" xmlns="http://www.w3.org/2000/svg" xmlns:xlink="http://www.w3.org/1999/xlink" x="0px" y="0px"
	 viewBox="0 0 420.4 360.3" style="enable-background:new 0 0 420.4 360.3;" xml:space="preserve">
<path fill="#fff" d="M0,0.8h89.9v29.9h29.9v30h299.8v119.8h-29.6v29.9h-30v30H120.1v30.2H89.9c0-69.1,0-138.2,0-207.3c-0.1-0.9-0.2-1.8-0.4-2.7
	H59.8V30.7H0V0.8z M389.5,150.7V90.9H120.2v119.4h209.6v-29.9h30v-29.7H389.5z"/>
<path fill="#fff" d="M119.9,360.3v-29.9H60.2v-60.1H90v29.8h269.7v-29.4h29.9v59.5h-29.8v30.1h-60v-29.7H179.9v29.7H119.9z"/>
</svg>
